# xmcd
#
# Track frame offsets:
# 183
# 16383
# 26975
# 51790
# 72058
# 85805
# 97153
# 105465
# 118698
# 139415
# 156043
# 166880
#
# Disc length: 2404 seconds
#
# Revision: 1
# Processed by: cddbd v1.4PL0 Copyright (c) Steve Scherf et al.
# Submitted via: CedeCatalogueitor 2.5 http://usuarios.lycos.es/kakasboy
#
DISCID=9d09620c
DTITLE=Lo Mejor Del Rythm´n and Lues - 24 Classic Tracks Cd-2
DYEAR=1994
DGENRE=
TTITLE0=Johnny Winter- BootHill
TTITLE1=Johnny Guitar Watson- Reconsider Baby
TTITLE2=Robert Cray and Albert Collins- The Dream
TTITLE3=A.C.Reed Feat. Bonnie Raitt- She´s Fine
TTITLE4=Albert King- Searching For A Woman
TTITLE5=Buddy Guy- Keep It To Yourself
TTITLE6=Lightnin´Hopkins- You´re Too Fast
TTITLE7=Howlin´Wolf- Worried About My Baby
TTITLE8=Albert Collins- Brick
TTITLE9=Lonnie Mack- Strike Like Lightning
TTITLE10=Dr.Felgood- Mad Man Blues
TTITLE11=Wilko Johnson- If You Want Me, You´ve Got Me
EXTD=
EXTT0=
EXTT1=
EXTT2=
EXTT3=
EXTT4=
EXTT5=
EXTT6=
EXTT7=
EXTT8=
EXTT9=
EXTT10=
EXTT11=
PLAYORDER=
